# xmcd
#
# Track frame offsets:
#	150
#	22012
#	50850
#	79462
#
# Disc length: 1096 seconds
#
# Revision: 1
# Processed by: cddbd v1.5.2PL0 Copyright (c) Steve Scherf et al.
# Submitted via: audiograbber 1.83.01
#
DISCID=34044604
DTITLE=Boozin' Bang'n' Dance Crew - Kiss My Ass [CDS)
DYEAR=1989
DGENRE=Dance
TTITLE0=Kiss My Ass (Single Version)
TTITLE1=Kiss My Ass (House Anarchy Mix)
TTITLE2=Kiss My Ass (Ruin The A Cappella Mix)
TTITLE3=Kiss My Ass (Jingles)
EXTD=TR.
EXTT0=
EXTT1=
EXTT2=
EXTT3=
PLAYORDER=
